<?xml version="1.0" encoding="UTF-8"?>
<svg version="1.1" xmlns="http://www.w3.org/2000/svg" width="200" height="200">
<path d="M0 0 C66 0 132 0 200 0 C200 66 200 132 200 200 C134 200 68 200 0 200 C0 134 0 68 0 0 Z " fill="#080705" transform="translate(0,0)"/>
<path d="M0 0 C0.495 1.485 0.495 1.485 1 3 C1.99 3.495 1.99 3.495 3 4 C3.33 3.34 3.66 2.68 4 2 C4.97006818 27.12373384 5.08943667 52.23635654 5.0625 77.375 C5.06164398 78.17951851 5.06078796 78.98403702 5.05990601 79.81293488 C5.04841347 89.87531515 5.02742359 99.93765037 5 110 C11.27 110 17.54 110 24 110 C24 79.31 24 48.62 24 17 C24.99 16.505 24.99 16.505 26 16 C27.00043968 20.97788655 27.13618403 25.70925717 27.11352539 30.75927734 C27.11367142 31.61846771 27.11381744 32.47765808 27.1139679 33.36288452 C27.11327429 36.18726169 27.1055078 39.01157193 27.09765625 41.8359375 C27.09579011 43.80034346 27.09436713 45.7647499 27.09336853 47.72915649 C27.08955879 52.88793228 27.07974171 58.04667971 27.06866455 63.20544434 C27.05841721 68.47419857 27.0538638 73.74295741 27.04882812 79.01171875 C27.03811803 89.34116027 27.02053376 99.67057333 27 110 C33.27 110 39.54 110 46 110 C45.99419922 108.30858887 45.98839844 106.61717773 45.98242188 104.87451172 C45.93420203 83.84045686 46.17308154 62.81398907 46.46356201 41.78222656 C46.52536303 37.27541031 46.58483097 32.76856323 46.64453125 28.26171875 C46.76081684 19.50778185 46.87955995 10.75388072 47 2 C47.33 2 47.66 2 48 2 C48.0154612 3.44246849 48.0154612 3.44246849 48.03123474 4.91407776 C48.12913618 13.99181853 48.23188545 23.06949332 48.33933926 32.1471262 C48.39442302 36.81363721 48.44781909 41.48015462 48.49731445 46.14672852 C48.5451734 50.65309294 48.59752274 55.15938518 48.65294075 59.66566277 C48.67326714 61.38195935 48.69199565 63.09827565 48.70907402 64.81460762 C48.73333455 67.22486592 48.76335751 69.6349905 48.79467773 72.04516602 C48.8004332 72.74935669 48.80618866 73.45354736 48.81211853 74.17907715 C48.8763535 78.54893829 49.30196802 82.69744082 50 87 C51.32 86.34 52.64 85.68 54 85 C54.33 85.33 54.66 85.66 55 86 C56.34015221 86.15582303 57.68758903 86.25044142 59.03515625 86.31640625 C59.84404297 86.35830078 60.65292969 86.40019531 61.48632812 86.44335938 C62.33646484 86.48267578 63.18660156 86.52199219 64.0625 86.5625 C65.34350586 86.62727539 65.34350586 86.62727539 66.65039062 86.69335938 C68.76672037 86.79976702 70.88333813 86.90041731 73 87 C72.99777939 86.13493332 72.99555878 85.26986664 72.99327087 84.37858582 C72.97314826 76.18512161 72.9579652 67.99166582 72.94818783 59.79818249 C72.94299206 55.58687972 72.93595518 51.37559756 72.92456055 47.16430664 C72.91361327 43.09239312 72.90769833 39.02049928 72.90512276 34.94857216 C72.90328968 33.40302534 72.89971064 31.85747948 72.89426994 30.31194115 C72.86561249 21.82578896 73.00262856 13.44185758 74 5 C75.32 4.67 76.64 4.34 78 4 C79.92985394 7.26095139 80.26701324 9.73629546 80.31884766 13.50292969 C80.34865219 15.15418854 80.34865219 15.15418854 80.37905884 16.83880615 C80.39638565 18.61242523 80.39638565 18.61242523 80.4140625 20.421875 C80.44311172 22.24455902 80.44311172 22.24455902 80.4727478 24.10406494 C80.53253806 27.98597184 80.57892746 31.8679084 80.625 35.75 C80.66318022 38.38152337 80.70223198 41.01303424 80.7421875 43.64453125 C80.83823929 50.09624331 80.92328865 56.54803057 81 63 C83.75031587 62.85888117 86.50015418 62.71228835 89.25 62.5625 C90.02730469 62.52318359 90.80460938 62.48386719 91.60546875 62.44335938 C92.35957031 62.40146484 93.11367187 62.35957031 93.890625 62.31640625 C94.92751465 62.26141968 94.92751465 62.26141968 95.98535156 62.20532227 C98.06628329 61.99324476 99.98572422 61.55491323 102 61 C101.34 60.67 100.68 60.34 100 60 C99.94929185 53.66458555 99.91426304 47.32922343 99.89013672 40.99365234 C99.8800789 38.83835901 99.86643101 36.68307932 99.84912109 34.52783203 C99.82486338 31.42997876 99.81351468 28.33230591 99.8046875 25.234375 C99.79436493 24.27070007 99.78404236 23.30702515 99.77340698 22.31414795 C99.77325592 21.41351624 99.77310486 20.51288452 99.77294922 19.58496094 C99.768508 18.79442322 99.76406677 18.0038855 99.75949097 17.18939209 C100.02803153 14.74482453 100.78117843 13.11843965 102 11 C103.98 11.99 103.98 11.99 106 13 C106 21.58 106 30.16 106 39 C112.27 39 118.54 39 125 39 C125 39.33 125 39.66 125 40 C122.03 40.495 122.03 40.495 119 41 C123.14093698 41.20970559 123.14093698 41.20970559 127 40 C127 76.96 127 113.92 127 152 C61 152 -5 152 -73 152 C-73 114.71 -73 77.42 -73 39 C-67.06 39 -61.12 39 -55 39 C-54.67 30.09 -54.34 21.18 -54 12 C-53.67 12 -53.34 12 -53 12 C-52.67 20.25 -52.34 28.5 -52 37 C-51.19190302 33.7676121 -50.84629826 31.3529439 -50.75390625 28.0859375 C-50.72103516 27.16039063 -50.68816406 26.23484375 -50.65429688 25.28125 C-50.59285619 23.33606412 -50.53559694 21.39074188 -50.48242188 19.4453125 C-50.43118164 18.06085938 -50.43118164 18.06085938 -50.37890625 16.6484375 C-50.3538501 15.80458496 -50.32879395 14.96073242 -50.30297852 14.09130859 C-50 12 -50 12 -48 10 C-47.67 27.16 -47.34 44.32 -47 62 C-41.39 62 -35.78 62 -30 62 C-29.04837628 59.14512885 -28.87836861 57.39545683 -28.88647461 54.43676758 C-28.88655014 53.51603958 -28.88662567 52.59531158 -28.88670349 51.64668274 C-28.89444542 50.16061775 -28.89444542 50.16061775 -28.90234375 48.64453125 C-28.9037587 47.62775803 -28.90517365 46.6109848 -28.90663147 45.56340027 C-28.91223293 42.31307036 -28.92478568 39.06280912 -28.9375 35.8125 C-28.94251481 33.61002704 -28.94707775 31.40755299 -28.95117188 29.20507812 C-28.96220283 23.80336196 -28.97894238 18.40168588 -29 13 C-27.35 12.67 -25.7 12.34 -24 12 C-23.84610451 20.9273046 -23.69792382 29.85468043 -23.5570364 38.78219986 C-23.49143713 42.92760664 -23.42387041 47.07296188 -23.35180664 51.21826172 C-23.28233269 55.21875372 -23.2180278 59.21929849 -23.15730476 63.21993256 C-23.13323067 64.74617275 -23.10729472 66.27238475 -23.07946587 67.7985611 C-23.04080373 69.9363006 -23.00876476 72.07404459 -22.97827148 74.21191406 C-22.95828598 75.4288092 -22.93830048 76.64570435 -22.91770935 77.8994751 C-22.98646141 80.48989679 -23.22376193 82.54703165 -24 85 C-21.703463 86.1482685 -20.41686833 86.11561175 -17.8671875 86.09765625 C-17.06152344 86.09443359 -16.25585938 86.09121094 -15.42578125 86.08789062 C-14.58402344 86.07951172 -13.74226563 86.07113281 -12.875 86.0625 C-12.02550781 86.05798828 -11.17601562 86.05347656 -10.30078125 86.04882812 C-8.20049091 86.03702874 -6.1002367 86.01909306 -4 86 C-3.96241577 84.114021 -3.96241577 84.114021 -3.92407227 82.18994141 C-2.98705114 35.53739248 -2.98705114 35.53739248 -2 14 C-1.34 13.67 -0.68 13.34 0 13 C0.33 12.01 0.66 11.02 1 10 C0.34 10 -0.32 10 -1 10 C-1.02689216 8.52093108 -1.04634621 7.04172517 -1.0625 5.5625 C-1.07410156 4.73878906 -1.08570312 3.91507813 -1.09765625 3.06640625 C-1 1 -1 1 0 0 Z " fill="#060605" transform="translate(73,48)"/>
<path d="M0 0 C5.94 0 11.88 0 18 0 C18 35.97 18 71.94 18 109 C12.06 109 6.12 109 0 109 C0 73.03 0 37.06 0 0 Z " fill="#F6C148" transform="translate(78,49)"/>
<path d="M0 0 C5.94 0 11.88 0 18 0 C18 35.97 18 71.94 18 109 C12.06 109 6.12 109 0 109 C0 73.03 0 37.06 0 0 Z " fill="#F6C149" transform="translate(101,49)"/>
<path d="M0 0 C5.94 0 11.88 0 18 0 C18 28.05 18 56.1 18 85 C12.06 85 6.12 85 0 85 C0 56.95 0 28.9 0 0 Z " fill="#F6C249" transform="translate(128,50)"/>
<path d="M0 0 C5.94 0 11.88 0 18 0 C18 28.05 18 56.1 18 85 C12.06 85 6.12 85 0 85 C0 56.95 0 28.9 0 0 Z " fill="#F7C24B" transform="translate(51,50)"/>
<path d="M0 0 C5.94 0 11.88 0 18 0 C18.02255497 7.80575587 18.04091738 15.61149407 18.05181217 23.41727352 C18.05704002 27.0414596 18.06413587 30.6656223 18.07543945 34.28979492 C18.08627184 37.78459975 18.09227758 41.27938204 18.09487724 44.77420235 C18.09763551 46.76239389 18.10544688 48.75057631 18.11329651 50.73875427 C18.11340981 52.54050865 18.11340981 52.54050865 18.11352539 54.37866211 C18.115746 55.44233505 18.11796661 56.506008 18.12025452 57.60191345 C18 60 18 60 17 61 C11.39 61 5.78 61 0 61 C0 40.87 0 20.74 0 0 Z " fill="#F4BF48" transform="translate(154,50)"/>
<path d="M0 0 C5.94 0 11.88 0 18 0 C18 20.13 18 40.26 18 61 C12.39 61 6.78 61 1 61 C0 60 0 60 -0.12025452 57.60191345 C-0.11803391 56.53824051 -0.11581329 55.47456757 -0.11352539 54.37866211 C-0.11344986 53.17749252 -0.11337433 51.97632294 -0.11329651 50.73875427 C-0.10813522 49.4314888 -0.10297394 48.12422333 -0.09765625 46.77734375 C-0.09579198 45.43355868 -0.09436812 44.08977293 -0.09336853 42.74598694 C-0.08954402 39.20317723 -0.07971432 35.6604083 -0.06866455 32.11761475 C-0.05844899 28.50484773 -0.0538706 24.89207416 -0.04882812 21.27929688 C-0.03809198 14.18617961 -0.02049572 7.09309675 0 0 Z " fill="#F9C246" transform="translate(25,50)"/>
<path d="M0 0 C5.94 0 11.88 0 18 0 C18 12.21 18 24.42 18 37 C12.06 37 6.12 37 0 37 C0 24.79 0 12.58 0 0 Z " fill="#F4C04A" transform="translate(180,50)"/>
<path d="M0 0 C5.61 0 11.22 0 17 0 C17 12.21 17 24.42 17 37 C11.39 37 5.78 37 0 37 C0 24.79 0 12.58 0 0 Z " fill="#F5BE47" transform="translate(0,50)"/>
<path d="M0 0 C0.33 0 0.66 0 1 0 C1 33.66 1 67.32 1 102 C0.67 102 0.34 102 0 102 C-0.01030746 100.90863235 -0.02061493 99.81726471 -0.03123474 98.69282532 C-0.12899081 88.40774245 -0.23172704 78.12271978 -0.33933926 67.83773518 C-0.39450363 62.5501289 -0.44791325 57.26251703 -0.49731445 51.97485352 C-0.54505367 46.87198818 -0.5973999 41.76918899 -0.65294075 36.66640282 C-0.67332101 34.71958247 -0.69204116 32.77274401 -0.70907402 30.82589149 C-0.73321395 28.09911177 -0.76325529 25.37245613 -0.79467773 22.64575195 C-0.8004332 21.84086334 -0.80618866 21.03597473 -0.81211853 20.20669556 C-0.86365117 16.27248085 -1.22160363 12.89198183 -2 9 C-2.33 39.69 -2.66 70.38 -3 102 C-3.33 102 -3.66 102 -4 102 C-4 69 -4 36 -4 2 C-3.67 3.32 -3.34 4.64 -3 6 C-2.34 6 -1.68 6 -1 6 C-0.67 4.02 -0.34 2.04 0 0 Z " fill="#1F1400" transform="translate(100,56)"/>
<path d="M0 0 C0.33 0 0.66 0 1 0 C1 20.13 1 40.26 1 61 C-4.61 61 -10.22 61 -16 61 C-17 60 -17 60 -17.11352539 56.39819336 C-17.11336625 54.79540144 -17.10767063 53.1926044 -17.09765625 51.58984375 C-17.0962413 50.74780899 -17.09482635 49.90577423 -17.09336853 49.03822327 C-17.08775263 46.33794665 -17.07519748 43.63775172 -17.0625 40.9375 C-17.05748705 39.11132932 -17.05292379 37.28515734 -17.04882812 35.45898438 C-17.03777804 30.97262458 -17.02050279 26.48632616 -17 22 C-16.67 22 -16.34 22 -16 22 C-15.67 34.21 -15.34 46.42 -15 59 C-10.05 59 -5.1 59 0 59 C0 39.53 0 20.06 0 0 Z " fill="#CCAF5B" transform="translate(42,50)"/>
<path d="M0 0 C0.33 0 0.66 0 1 0 C1 27.06 1 54.12 1 82 C-3.29 82 -7.58 82 -12 82 C-12 81.67 -12 81.34 -12 81 C-10.35 81 -8.7 81 -7 81 C-7 80.34 -7 79.68 -7 79 C-5.02 79.33 -3.04 79.66 -1 80 C-0.67 53.6 -0.34 27.2 0 0 Z " fill="#EEC544" transform="translate(67,51)"/>
</svg>
